<?xml version="1.0" encoding="utf-8"?>
<!-- Generator: Adobe Illustrator 24.0.2, SVG Export Plug-In . SVG Version: 6.00 Build 0)  -->
<svg version="1.1" id="Capa_1" xmlns="http://www.w3.org/2000/svg" xmlns:xlink="http://www.w3.org/1999/xlink" x="0px" y="0px"
	 viewBox="0 0 512 512" style="enable-background:new 0 0 512 512;" xml:space="preserve">
<style type="text/css">
	.st0{fill:#D23C54;}
	.st1{fill:#F8B133;}
	.st2{fill:#EAAC9D;}
	.st3{fill:#FFCBBE;}
	.st4{fill:#DFDDE2;}
	.st5{fill:#E2BCAF;}
	.st6{fill:#D3EFFB;}
	.st7{fill:#B1E4F9;}
	.st8{fill:#CE912E;}
	.st9{fill:#AE1A46;}
	.st10{fill:none;}
</style>
<path class="st0" d="M319.4,47.7h14.4c18.2,0,33-14.8,33-33V7.5h-75.3c-8.2,0-15.5,5.2-18.2,12.9l-48,136.1h132.6L319.4,47.7z"/>
<path class="st1" d="M225.3,156.5L213.5,190h156.2l-11.8-33.5H225.3z"/>
<path class="st2" d="M374.4,233.2h-12.1l-1.2,15.6l10.5,28c10.6-4.2,18.1-14.5,18.1-26.6v-1.7C389.8,240.1,382.9,233.2,374.4,233.2
	L374.4,233.2z"/>
<path class="st2" d="M225,282.3l-5.9-5.6l-5.6-5.4l4.9-13.1v0l1.4-3.8l-1.4,3.8l-4.9,13.1l-5.8-5.6c-4.2-3.9-6.7-9.4-6.7-15.5v-1.7
	c0-4.3,3.5-7.9,7.9-7.9h12.5l0.6,8.2l1.9,5.7l0,0v0L225,282.3z"/>
<polygon class="st2" points="219.8,254.4 218.4,258.2 218.4,258.2 213.5,271.3 213.4,271.3 218.4,258.2 "/>
<path d="M274.3,340.2l-5.7-3l-5.7-3.3L274.3,340.2z M352,240.7c1.1,0,2,1,2,2.1l0.1-2.1H352z M322.5,335.2c0.7-0.5,1.3-1,1.4-1
	c0.3-0.5,0.5-1,0.7-1.4C324.1,333.7,323.4,334.6,322.5,335.2z M311.3,340C311.2,340,311.2,340,311.3,340l-55.3-13.5
	c0.1,0.2,0.1,0.4,0.2,0.6c0.6,2.4,2.2,4.4,4.3,5.5c1.3,0.7,2.4,1.3,2.5,1.3l5.7,3.3l5.7,3c8.3,3.9,24.6,4.2,33.3,1.3
	c0.1,0,4.3-1.2,4.4-1.3l3.1-1.1l0.1,0c-0.1,0-0.1,0-0.2,0.1L311.3,340z M310.7,240.7h-2v2C308.7,241.6,309.6,240.7,310.7,240.7z
	 M293.7,242.6l0-1.9h-2C292.8,240.7,293.7,241.5,293.7,242.6z M229,242.7c0-1.1,0.9-2,2-2h-2.1L229,242.7z M222,248.5
	c0,0.2,0.1,0.4,0.1,0.5l1.6,4.8l-2.3-12.3L222,248.5z"/>
<path d="M371.6,276.8l-9-23.9l-0.2-0.6l-0.7-1.9l-0.5-1.4l0-0.1l1-13.3l0-0.2c0-1.2-0.9-2.1-2.1-2.1H220.8l0.2,2.1l0,0.2l0.5,6v0
	l2.3,12.3l8.6,25.7l-0.1,0.1l-8.4-25l1.1,27.8l0.9,2.8l1.9,5.6h0l1.1,3.2l2.4,7.1l2.5,7.6l7.7,22.7c0.1,0.3,0.2,0.5,0.3,0.8
	c3.9,10.5,11.4,12.7,22.4,16c0.1,0,0.2,0,0.2,0.1l18.8,3.8c3.9,0.5,9.6,1.1,15.3,0.8l15.8-2.4c0.1,0,0.4-0.1,0.5-0.1
	c5.8-1.5,11.3-5.1,16.5-7.8c4.3-2.2,7.9-6.1,9.6-11.2l2.7-7.9l5-14.8l2.7-7.6l2.6-7.5l0,0l1.6-4.6l1.2-3.5c-0.1-0.1-0.1-0.2-0.2-0.3
	l2.8-8.2c0.6-1.9,3.3-2,4-0.1l3,8c0.4,1.1,1.7,1.7,2.8,1.2c1.8-0.7,3.5-1.5,5.2-2.2v0L371.6,276.8z M354,242.8l0,0.2l-0.2,4.1l0,0.3
	l-0.1,0.3l-9,26.6v0l-2.9,6.9c0,0,0,0.1,0,0.1l-2.4,7.6l-1.5,4.8l-2.4,7.5l-2.4,7.5l-6,17.9c-0.1,0.2-0.1,0.4-0.2,0.6
	c0,0.1-0.1,0.2-0.1,0.4c-0.1,0.5-0.3,1-0.5,1.5c-0.1,0.2-0.2,0.5-0.3,0.7c-0.1,0.3-0.3,0.7-0.4,1s-0.3,0.7-0.5,1.1
	c-0.1,0.2-0.2,0.4-0.3,0.6c0,0.1-0.1,0.2-0.1,0.2c-0.2,0.5-0.5,1-0.7,1.4c-0.1,0.1-0.7,0.5-1.4,1c-0.3,0.2-0.7,0.5-1,0.8
	c-0.2,0.1-0.3,0.3-0.5,0.4c-0.3,0.2-0.5,0.4-0.7,0.5c0,0-0.1,0.1-0.1,0.1c-0.2,0.2-0.4,0.3-0.4,0.3l-4.6,1.9l-0.1,0l-3.1,1.1
	c-0.1,0-4.3,1.2-4.4,1.3c-8.7,2.9-25,2.6-33.3-1.3l-5.7-3l-5.7-3.3c-0.1,0-1.2-0.6-2.5-1.3c-2.1-1.2-3.7-3.2-4.3-5.5
	c0-0.2-0.1-0.4-0.2-0.6l-6-17.9l-2.5-7.5l-2.5-7.5l-1.5-4.5l-2.5-7.6l-2.5-7.4l-9-26.7l-0.1-0.3l0-0.3l-0.3-4.2l0-0.2l-0.2-2h64.9
	l0,1.9v0.2l0.1,19.4v0.1c0,1.2,0.9,2.2,2.1,2.2h10.7c1.1,0,2-0.8,2.1-1.9v0c0-0.4,0-0.9,0-1.6c0-1.4,0-3.5,0-6.8c0-2.8,0-6.5,0-11.3
	v-2.1h45.4L354,242.8z"/>
<path class="st3" d="M320.2,336.9C320.2,336.9,320.2,336.9,320.2,336.9c-1-0.1-1.8-0.4-2.6-0.8l-0.2-0.1
	C318.3,336.4,319.3,336.7,320.2,336.9z"/>
<polygon class="st3" points="344.6,274.2 341.7,281.1 344,273.8 344,273.7 344.6,274.2 "/>
<polygon class="st4" points="219.8,254.4 218.4,258.2 218.4,258.2 213.5,271.3 213.4,271.3 218.4,258.2 "/>
<path class="st4" d="M320.2,336.9C320.2,336.9,320.2,336.9,320.2,336.9c-1-0.1-1.8-0.4-2.6-0.8l-0.2-0.1
	C318.3,336.4,319.3,336.7,320.2,336.9z"/>
<path class="st1" d="M131.7,290.7H97.2c-6.6,0-11.9,5.3-11.9,11.9s5.3,11.9,11.9,11.9h34.4c6.6,0,11.9-5.3,11.9-11.9
	S138.2,290.7,131.7,290.7z"/>
<path class="st5" d="M100.8,314.5h27.3v190h-27.3V314.5z"/>
<path class="st6" d="M114.4,193c-27.5,0-49.8,22.3-49.8,49.8c0,22.8,15.4,42.1,36.3,48h27c21-5.9,36.3-25.1,36.3-48
	C164.2,215.3,141.9,193,114.4,193z"/>
<path class="st7" d="M125.2,194.1c5.7,8.1,9.1,18,9.1,28.6c0,0.6,0,1.3,0,1.9c-1,25.9-22.8,46.1-48.7,46.1h-2
	c-3.8,0-7.5-0.4-11.1-1.3c6.5,10.2,16.6,17.9,28.6,21.3h27c21-5.9,36.3-25.1,36.3-48C164.2,219,147.5,199,125.2,194.1z"/>
<path class="st0" d="M163.3,233.2h270L369.7,190H213.5l-52.3,35.5C162.1,227.9,162.8,230.5,163.3,233.2L163.3,233.2z"/>
<path class="st8" d="M342.8,178.9l13.3,9c0.9,0.6,1.7,1.3,2.5,2.1h11.1l-11.8-33.5H325C328.5,165.6,334.7,173.4,342.8,178.9
	L342.8,178.9z"/>
<path class="st9" d="M369.7,190h-11.1c7.9,8.3,2.3,23.2-10.2,23.2H179.3l-18.1,12.3c0.9,2.5,1.6,5.1,2.2,7.7h270L369.7,190z"/>
<path class="st9" d="M324.3,7.5c-5,11.9-16.8,20.2-30.4,20.2c-7,0-12,7-9.6,13.6c0,0,40.5,114.7,40.7,115.2h32.9L319.4,47.7h14.4
	c18.2,0,33-14.8,33-33V7.5H324.3z"/>
<path class="st0" d="M456.6,497.1h-53.4l-4.1-25.8l-3.7-23.3c-0.6-4.1-4.5-6.9-8.6-6.2c-4.1,0.6-6.9,4.5-6.2,8.6l4.7,29.8l2.7,17
	H195l2-12.8l5.4-34c0.6-4.1-2.1-7.9-6.2-8.6c-4.1-0.6-7.9,2.1-8.6,6.2l-5.8,36.4l-2,12.7h-44.3v-50.2l6.3-34.4
	c4.4-24.1,25.3-41.5,49.8-41.5h199.8c3.5,0,6.9,0.3,10.2,1c19.9,4.1,35.8,19.9,39.6,40.5L456.6,497.1z"/>
<path class="st0" d="M465.5,504.5H128v-58.4l6.4-35.1c5.1-27.6,29.1-47.7,57.2-47.7H209l0.4,7.7h-17.8c-24.5,0-45.4,17.4-49.8,41.5
	l-6.3,34.4v50.2h44.3l2-12.7l5.8-36.4c0.7-4.1,4.5-6.8,8.6-6.2c4.1,0.7,6.8,4.5,6.2,8.6l-5.4,34l-2,12.8h193l-2.7-17l-4.7-29.8
	c-0.7-4.1,2.1-8,6.2-8.6c4.1-0.7,8,2.1,8.6,6.2l3.7,23.3l4.1,25.8h53.4l-15.4-84.6c-3.8-20.6-19.7-36.4-39.6-40.5
	c-3.3-0.7-6.7-1-10.2-1H378v-7.7h13.4c1.3,0,2.7,0,4,0.1c17.3,1.2,32.7,10,42.6,23.3c0,0,0,0,0,0c0.5,0.6,0.9,1.3,1.4,1.9
	c1,1.4,1.9,2.9,2.7,4.4c0.2,0.3,0.4,0.7,0.6,1c0.3,0.6,0.6,1.2,0.9,1.8c0.2,0.4,0.3,0.7,0.5,1.1c0.4,0.8,0.7,1.5,1,2.3
	c0.1,0.3,0.3,0.7,0.4,1c0.1,0.4,0.3,0.8,0.4,1.1c0.1,0.4,0.3,0.8,0.4,1.2c0.2,0.4,0.3,0.8,0.4,1.3c0.1,0.4,0.2,0.7,0.3,1.1
	c0.1,0.4,0.2,0.8,0.3,1.2c0.1,0.4,0.2,0.8,0.3,1.2c0.1,0.4,0.2,0.8,0.3,1.2c0.2,0.8,0.4,1.6,0.5,2.5l16.9,93.4L465.5,504.5z"/>
<path class="st9" d="M448.6,411c-4.8-26.3-26.8-45.8-53.2-47.6c6.6,7.6,11.3,17.1,13.2,27.6l6.2,33.8c5.7,31-18.2,59.6-49.7,59.6
	h-237v20h337.5L448.6,411z"/>
<path d="M97.2,307c-2.4,0-4.4-2-4.4-4.4s2-4.4,4.4-4.4h34.4c2.4,0,4.4,2,4.4,4.4s-2,4.4-4.4,4.4C120.1,307,107.2,307,97.2,307z
	 M280.4,22.9c1.7-4.7,6.2-7.9,11.2-7.9h67.8c-0.2,13.9-11.6,25.2-25.5,25.2h-9.1l-3-8.6c-1.4-3.9-5.7-6-9.6-4.6s-6,5.7-4.6,9.6
	c7.9,22.5,30.4,86.1,39.7,112.4H337c-4.1,0-7.5,3.4-7.5,7.5s3.4,7.5,7.5,7.5h15.6l6.5,18.5h-135l6.5-18.5h71.3
	c4.1,0,7.5-3.4,7.5-7.5s-3.4-7.5-7.5-7.5h-66L280.4,22.9z M215.8,197.5h151.6l41.6,28.2c-79,0-189.6,0-234.7,0L215.8,197.5z
	 M114.4,200.5c23.3,0,42.3,19,42.3,42.3c0,18.6-12.2,35.1-29.9,40.5H102c-17.7-5.4-29.9-21.9-29.9-40.5
	C72.1,219.4,91.1,200.5,114.4,200.5z M395.4,448c-0.6-4.1-4.5-6.9-8.6-6.2c-4.1,0.6-6.9,4.5-6.2,8.6l4.7,29.8
	c5.1-2.2,9.7-5.3,13.8-8.9L395.4,448z M196.2,441.8c-4.1-0.6-7.9,2.1-8.6,6.2l-5.8,36.4H197l5.4-34
	C203,446.3,200.3,442.5,196.2,441.8z M208.6,355.9L208.6,355.9h8.8H208.6z M208.6,355.9L208.6,355.9h8.8H208.6z M208.6,355.9
	L208.6,355.9h8.8H208.6z M208.6,355.9L208.6,355.9h8.8H208.6z M208.6,355.9L208.6,355.9h8.8H208.6z M208.6,355.9L208.6,355.9h8.8
	H208.6z M382.3,248.5v1.7c0,6-2.5,11.6-6.7,15.5l-6.8-18l0.5-7.1h5.1C378.7,240.7,382.3,244.2,382.3,248.5z M208.6,355.9
	L208.6,355.9h8.8H208.6z M208.6,355.9L208.6,355.9h8.8H208.6z M208.6,355.9L208.6,355.9h8.8H208.6z M208.6,355.9L208.6,355.9h8.8
	H208.6z M208.6,355.9L208.6,355.9h8.8H208.6z M218.4,258.2l-4.9,13.1l0,0L218.4,258.2L218.4,258.2l1.4-3.8L218.4,258.2z M473,503.2
	l-17-93.5c-5.7-31.2-32.8-53.9-64.6-53.9H378V371h13.4c3.5,0,6.9,0.3,10.2,1c19.9,4.1,35.8,19.9,39.6,40.5l15.4,84.6h-53.4
	l-4.1-25.8l-3.7-23.3c-0.6-4.1-4.5-6.9-8.6-6.2c-4.1,0.6-6.9,4.5-6.2,8.6l4.7,29.8l2.7,17H195l2-12.8l5.4-34
	c0.6-4.1-2.1-7.9-6.2-8.6c-4.1-0.6-7.9,2.1-8.6,6.2l-5.8,36.4l-2,12.7h-44.3v-50.2l6.3-34.4c4.4-24.1,25.3-41.5,49.8-41.5h17.8
	l-0.4-7.7l-0.4-7.4h-16.8c-23.5,0-44.5,12.4-56.1,31.5v-65.8c14.2-3,20.3-20.1,10.9-31.3c16.1-11,25.9-29.6,25.2-49.6h15.5
	c-1.4,3.9-1.4,6.8-1.4,9.6c0,12.4,6.2,23.6,16.2,30.2c0,0,2.8,1.7,6.6,3.3l0.7-1.9l1.9-5.1c-10.5-4.2-18-14.5-18.2-26.5v-1.7
	c0-8.5,6.9-15.4,15.4-15.4h12.1l0.6,7.4l0.6,8.2l1.9,5.7l0,0v0l8.4,25l0.1-0.1l-8.6-25.6v0l-1.6-4.8l-0.1-0.3l0-0.3l-0.5-7v0l-0.5-6
	l0-0.2l-0.2-2.1h141.6l-0.2,2.1l0,0.2l-1,13.3l0,0.1l0.5,1.4l0.7,1.9l0.2,0.6l9,23.9l2.6,6.9c3.9-1.8,6.8-3.3,6.8-3.3
	c10-6.6,16.2-17.8,16.2-30.2c0-3.1,0-5.7-1.4-9.6h37.5c3.3,0,6.2-2.1,7.2-5.3s-0.2-6.6-3-8.4L376,185.1
	c-16.1-45.5-29.8-84.5-45.9-130h3.8c22.4,0,40.5-18.2,40.5-40.5V7.5c0-4.1-3.4-7.5-7.5-7.5h-75.3c-11.4,0-21.5,7.2-25.3,17.9
	c-25.2,71.5-31.3,88.6-59,167.3l-43,29.2c-9.9-17.2-28.5-28.9-49.7-28.9c-31.6,0-57.3,25.7-57.3,57.3c-0.2,19.3,9.6,37,25,47.4
	c-9.4,11.2-3.3,28.4,10.9,31.3v9.1c0,4.1,3.4,7.5,7.5,7.5c4.1,0,7.5-3.4,7.5-7.5V322h12.3v175h-12.3V365.6c0-4.1-3.4-7.5-7.5-7.5
	c-4.1,0-7.5,3.4-7.5,7.5v138.9c0,4.1,3.4,7.5,7.5,7.5h364.9C470.3,512,473.8,507.8,473,503.2z"/>
<path d="M209.5,281.8l1.9-5.1c-10.5-4.2-18-14.5-18.2-26.5v-1.7c0-8.5,6.9-15.4,15.4-15.4h12.1l0.6,7.4h-12.5
	c-4.4,0-7.9,3.6-7.9,7.9v1.7c0,6.1,2.5,11.6,6.7,15.5l5.8,5.6l0,0l5.6,5.4l5.9,5.6l0.9,2.8l1.9,5.6h0l1.1,3.2l-20.1-10.1
	L209.5,281.8z"/>
<path d="M351.8,240.7c1.2,0,2.2,1,2.1,2.3l0.1-2.3H351.8z M353.6,247.5l0.1-0.3l0-0.3C353.7,247.2,353.7,247.4,353.6,247.5z
	 M308.7,240.7v2.1c0-1.2,1-2.1,2.1-2.1H308.7z M308.7,262.6c0-0.1,0-0.1,0-0.2V261C308.7,261.7,308.7,262.2,308.7,262.6z
	 M293.7,240.7h-2.1c1.2,0,2.1,0.9,2.1,2.1L293.7,240.7z M229.3,247l0,0.3l0.1,0.3C229.3,247.4,229.3,247.2,229.3,247z M228.8,240.7
	l0.2,2l0,0.2c0-1.2,1-2.1,2.1-2.1H228.8z"/>
<path class="st3" d="M354.1,240.7l-0.1,2.1l0,0.2l-0.2,4.1l0,0.3l-0.1,0.3l-9,26.6l0,0l-0.5-0.5l0,0.1l-2.3,7.3l-2.4,7.6l-1.5,4.8
	l-2.4,7.5l-2.4,7.5l-6,17.9c-0.1,0.2-0.1,0.4-0.2,0.6c0,0.1-0.1,0.3-0.1,0.4c-0.1,0.5-0.3,1-0.5,1.5c-0.1,0.2-0.2,0.5-0.3,0.7
	c-0.1,0.3-0.3,0.7-0.4,1c-0.2,0.4-0.3,0.7-0.5,1.1c-0.1,0.3-0.2,0.5-0.4,0.8c-0.2,0.5-0.5,1-0.7,1.4c-0.1,0.1-0.7,0.5-1.4,1
	c-0.3,0.2-0.7,0.5-1,0.8c-0.2,0.1-0.3,0.3-0.5,0.4c-0.3,0.2-0.5,0.4-0.7,0.5c-1-0.2-1.9-0.5-2.8-0.9l0.2,0.1
	c0.8,0.4,1.7,0.7,2.5,0.9c-0.2,0.2-0.4,0.3-0.4,0.3l-4.6,1.9l-0.1,0l-3.1,1.1c-0.1,0-4.3,1.2-4.4,1.3c-8.7,2.9-25,2.6-33.3-1.3
	l-5.7-3l-5.7-3.3c-0.1,0-1.2-0.6-2.5-1.3c-2.1-1.2-3.7-3.2-4.3-5.5c0-0.2-0.1-0.4-0.2-0.6l-6-17.9l-2.5-7.5l-2.5-7.5l-1.5-4.5
	l-2.5-7.6l-2.5-7.4l-9-26.7l-0.1-0.3l0-0.3l-0.3-4.2l0-0.2l-0.2-2h64.9l0,1.9v0.2l0.1,19.4v0.1c0,1.3-1,2.2-2.3,2.2h17.1
	c0.1-0.6,0.1-0.8,0.1-1.9v0c0-0.4,0-0.9,0-1.6c0-1.4,0-3.5,0-6.8c0-2.8,0-6.5,0-11.3v-2.1H354.1z"/>
<polygon class="st3" points="344.6,274.2 344.6,274.2 344.6,274.2 "/>
<path d="M114.4,225.5c9.5,0,17.3,7.8,17.3,17.3c0,4.1,3.4,7.5,7.5,7.5s7.5-3.4,7.5-7.5c0-17.8-14.5-32.3-32.3-32.3
	c-4.1,0-7.5,3.4-7.5,7.5S110.3,225.5,114.4,225.5z"/>
<path d="M114.4,170.5c4.1,0,7.5-3.4,7.5-7.5v-16.5c0-4.1-3.4-7.5-7.5-7.5s-7.5,3.4-7.5,7.5V163C106.9,167.1,110.3,170.5,114.4,170.5
	z"/>
<path d="M52.7,191.6c2.9,2.9,7.7,2.9,10.6,0s2.9-7.7,0-10.6l-11.6-11.6c-2.9-2.9-7.7-2.9-10.6,0s-2.9,7.7,0,10.6L52.7,191.6z"/>
<path d="M176.2,191.6l11.6-11.6c2.9-2.9,2.9-7.7,0-10.6c-2.9-2.9-7.7-2.9-10.6,0L165.6,181c-2.9,2.9-2.9,7.7,0,10.6
	C168.5,194.6,173.2,194.6,176.2,191.6z"/>
<polygon class="st10" points="344.6,274.2 341.7,281.1 344,273.8 344,273.7 344.6,274.2 "/>
<polygon points="378,355.8 378,371 209.4,371 209,363.3 208.6,355.9 217.4,355.9 225.9,355.9 258.7,355.9 266.9,355.9 315.8,355.8 
	322.7,355.8 323.8,355.8 356.8,355.8 365.5,355.8 374.6,355.8 "/>
<line class="st10" x1="208.6" y1="355.9" x2="193.2" y2="349.7"/>
<polygon class="st0" points="382.5,355.8 382.3,355.9 378,355.9 356.8,355.8 365.5,355.8 374.6,355.8 "/>
<line class="st10" x1="227.8" y1="290.7" x2="215.6" y2="286.1"/>
<polyline class="st10" points="369.1,286 353.9,293.5 367.1,286.8 "/>
<line class="st10" x1="375.6" y1="265.7" x2="359.3" y2="276.9"/>
<polygon points="218.4,258.2 219.8,254.4 218.4,258.2 218.4,258.2 213.5,271.3 213.4,271.3 "/>
<polygon points="223.8,254.5 221.9,248.8 221.3,240.6 221.4,241.5 221.4,241.5 223.7,253.8 223.7,253.9 "/>
</svg>
